<mxfile host="Electron" modified="2024-03-04T18:46:59.143Z" agent="Mozilla/5.0 (Macintosh; Intel Mac OS X 10_15_7) AppleWebKit/537.36 (KHTML, like Gecko) draw.io/23.0.2 Chrome/120.0.6099.109 Electron/28.1.0 Safari/537.36" etag="_Idu7DBCcQqI2eMJCyRA" version="23.0.2" type="device">
  <diagram name="scope 3 purchased goods" id="RsvRXYmt7Pg8OCQN_s-k">
    <mxGraphModel dx="3179" dy="1985" grid="1" gridSize="10" guides="1" tooltips="1" connect="1" arrows="1" fold="1" page="1" pageScale="1" pageWidth="1100" pageHeight="850" math="0" shadow="0">
      <root>
        <mxCell id="0" />
        <mxCell id="1" parent="0" />
        <mxCell id="fHjM2LGzWpUDxwAUwFOc-43" value="&lt;i style=&quot;font-size: 10px;&quot;&gt;≪data product≫&lt;br&gt;&lt;/i&gt;Material to NAICS" style="rounded=1;whiteSpace=wrap;html=1;absoluteArcSize=1;arcSize=14;strokeWidth=2;fillColor=none;verticalAlign=top;recursiveResize=0;container=0;" vertex="1" parent="1">
          <mxGeometry x="1010" y="-40" width="200" height="238.12" as="geometry" />
        </mxCell>
        <mxCell id="fHjM2LGzWpUDxwAUwFOc-44" value="&lt;i style=&quot;font-size: 10px;&quot;&gt;≪data product≫&lt;br&gt;&lt;/i&gt;Import US EPA emission factors into SIF" style="rounded=1;whiteSpace=wrap;html=1;absoluteArcSize=1;arcSize=14;strokeWidth=2;fillColor=none;verticalAlign=top;recursiveResize=0;container=0;" vertex="1" parent="1">
          <mxGeometry x="1455" y="-450" width="440" height="160" as="geometry" />
        </mxCell>
        <mxCell id="fHjM2LGzWpUDxwAUwFOc-58" value="" style="shape=parallelogram;html=1;strokeWidth=2;perimeter=parallelogramPerimeter;whiteSpace=wrap;rounded=1;arcSize=12;size=0.23;" vertex="1" parent="1">
          <mxGeometry x="1730" y="-385" width="120" height="50" as="geometry" />
        </mxCell>
        <mxCell id="fHjM2LGzWpUDxwAUwFOc-57" value="" style="shape=parallelogram;html=1;strokeWidth=2;perimeter=parallelogramPerimeter;whiteSpace=wrap;rounded=1;arcSize=12;size=0.23;" vertex="1" parent="1">
          <mxGeometry x="1720" y="-380" width="120" height="50" as="geometry" />
        </mxCell>
        <mxCell id="fHjM2LGzWpUDxwAUwFOc-56" value="" style="rounded=1;whiteSpace=wrap;html=1;absoluteArcSize=1;arcSize=14;strokeWidth=2;" vertex="1" parent="1">
          <mxGeometry x="1530" y="-400" width="115" height="60" as="geometry" />
        </mxCell>
        <mxCell id="fHjM2LGzWpUDxwAUwFOc-55" value="" style="rounded=1;whiteSpace=wrap;html=1;absoluteArcSize=1;arcSize=14;strokeWidth=2;" vertex="1" parent="1">
          <mxGeometry x="1520" y="-390" width="115" height="60" as="geometry" />
        </mxCell>
        <mxCell id="FAb9GYTSzdvR_h6lj96H-99" value="&lt;i style=&quot;font-size: 10px;&quot;&gt;≪data product≫&lt;br&gt;&lt;/i&gt;US EPA emission factors" style="rounded=1;whiteSpace=wrap;html=1;absoluteArcSize=1;arcSize=14;strokeWidth=2;fillColor=none;verticalAlign=top;" parent="1" vertex="1">
          <mxGeometry x="1000" y="-450" width="370" height="310" as="geometry" />
        </mxCell>
        <mxCell id="FAb9GYTSzdvR_h6lj96H-44" value="&lt;i style=&quot;font-size: 10px;&quot;&gt;≪data product≫&lt;br&gt;&lt;/i&gt;mapping materials to EEIO emission factors" style="rounded=1;whiteSpace=wrap;html=1;absoluteArcSize=1;arcSize=14;strokeWidth=2;fillColor=none;verticalAlign=top;recursiveResize=0;container=0;" parent="1" vertex="1">
          <mxGeometry x="460" y="-20" width="460" height="240" as="geometry" />
        </mxCell>
        <mxCell id="FAb9GYTSzdvR_h6lj96H-42" style="edgeStyle=orthogonalEdgeStyle;rounded=0;orthogonalLoop=1;jettySize=auto;html=1;" parent="1" source="FAb9GYTSzdvR_h6lj96H-23" target="FAb9GYTSzdvR_h6lj96H-40" edge="1">
          <mxGeometry relative="1" as="geometry">
            <Array as="points">
              <mxPoint x="405" y="165" />
            </Array>
          </mxGeometry>
        </mxCell>
        <mxCell id="FAb9GYTSzdvR_h6lj96H-78" style="edgeStyle=orthogonalEdgeStyle;rounded=0;orthogonalLoop=1;jettySize=auto;html=1;" parent="1" source="FAb9GYTSzdvR_h6lj96H-6" target="fHjM2LGzWpUDxwAUwFOc-13" edge="1">
          <mxGeometry relative="1" as="geometry">
            <Array as="points" />
          </mxGeometry>
        </mxCell>
        <mxCell id="FAb9GYTSzdvR_h6lj96H-80" style="edgeStyle=orthogonalEdgeStyle;rounded=0;orthogonalLoop=1;jettySize=auto;html=1;" parent="1" source="FAb9GYTSzdvR_h6lj96H-30" target="FAb9GYTSzdvR_h6lj96H-117" edge="1">
          <mxGeometry relative="1" as="geometry">
            <Array as="points">
              <mxPoint x="540" y="460" />
              <mxPoint x="1765" y="460" />
            </Array>
          </mxGeometry>
        </mxCell>
        <mxCell id="FAb9GYTSzdvR_h6lj96H-83" value="&lt;i style=&quot;font-size: 10px;&quot;&gt;≪data product≫&lt;br&gt;&lt;/i&gt;invoice data quality profiling" style="rounded=1;whiteSpace=wrap;html=1;absoluteArcSize=1;arcSize=14;strokeWidth=2;fillColor=none;verticalAlign=top;" parent="1" vertex="1">
          <mxGeometry x="-60" y="530" width="180" height="150" as="geometry" />
        </mxCell>
        <mxCell id="fHjM2LGzWpUDxwAUwFOc-64" style="edgeStyle=orthogonalEdgeStyle;rounded=0;orthogonalLoop=1;jettySize=auto;html=1;dashed=1;" edge="1" parent="1" source="FAb9GYTSzdvR_h6lj96H-84" target="FAb9GYTSzdvR_h6lj96H-27">
          <mxGeometry relative="1" as="geometry">
            <Array as="points">
              <mxPoint x="260" y="630" />
              <mxPoint x="260" y="630" />
            </Array>
          </mxGeometry>
        </mxCell>
        <mxCell id="FAb9GYTSzdvR_h6lj96H-84" value="- Data quality&lt;br&gt;" style="strokeWidth=2;html=1;shape=mxgraph.flowchart.document2;whiteSpace=wrap;size=0.25;" parent="1" vertex="1">
          <mxGeometry x="-15" y="600" width="90" height="60" as="geometry" />
        </mxCell>
        <mxCell id="FAb9GYTSzdvR_h6lj96H-94" value="&lt;b&gt;&lt;font style=&quot;font-size: 14px;&quot;&gt;7&lt;/font&gt;&lt;/b&gt;" style="ellipse;whiteSpace=wrap;html=1;fillColor=#C2C2C2;fontColor=#FFFFFF;" parent="1" vertex="1">
          <mxGeometry x="-72.5" y="510" width="30" height="30" as="geometry" />
        </mxCell>
        <mxCell id="FAb9GYTSzdvR_h6lj96H-13" value="&lt;i style=&quot;font-size: 10px;&quot;&gt;≪data product≫&lt;br&gt;&lt;/i&gt;USEEIO emission factors" style="rounded=1;whiteSpace=wrap;html=1;absoluteArcSize=1;arcSize=14;strokeWidth=2;fillColor=none;verticalAlign=top;" parent="1" vertex="1">
          <mxGeometry x="305" y="-315" width="315" height="190" as="geometry" />
        </mxCell>
        <mxCell id="fHjM2LGzWpUDxwAUwFOc-78" style="edgeStyle=orthogonalEdgeStyle;rounded=0;orthogonalLoop=1;jettySize=auto;html=1;dashed=1;" edge="1" parent="1" source="FAb9GYTSzdvR_h6lj96H-16" target="fHjM2LGzWpUDxwAUwFOc-13">
          <mxGeometry relative="1" as="geometry" />
        </mxCell>
        <mxCell id="FAb9GYTSzdvR_h6lj96H-16" value="&lt;i style=&quot;font-size: 10px;&quot;&gt;&lt;br&gt;&lt;br&gt;≪s3 csv≫&lt;br style=&quot;border-color: var(--border-color);&quot;&gt;&lt;/i&gt;USEEIO&lt;br&gt;emission factors" style="strokeWidth=2;html=1;shape=mxgraph.flowchart.database;whiteSpace=wrap;" parent="1" vertex="1">
          <mxGeometry x="492.5" y="-265" width="85" height="110" as="geometry" />
        </mxCell>
        <mxCell id="FAb9GYTSzdvR_h6lj96H-92" value="&lt;b&gt;&lt;font style=&quot;font-size: 14px;&quot;&gt;3&lt;/font&gt;&lt;/b&gt;" style="ellipse;whiteSpace=wrap;html=1;fillColor=#C2C2C2;fontColor=#FFFFFF;" parent="1" vertex="1">
          <mxGeometry x="287.5" y="-330" width="30" height="30" as="geometry" />
        </mxCell>
        <mxCell id="fHjM2LGzWpUDxwAUwFOc-32" style="edgeStyle=orthogonalEdgeStyle;rounded=0;orthogonalLoop=1;jettySize=auto;html=1;endArrow=none;endFill=0;startArrow=diamondThin;startFill=0;" edge="1" parent="1" source="FAb9GYTSzdvR_h6lj96H-102" target="fHjM2LGzWpUDxwAUwFOc-30">
          <mxGeometry relative="1" as="geometry" />
        </mxCell>
        <mxCell id="FAb9GYTSzdvR_h6lj96H-102" value="&lt;i style=&quot;font-size: 10px;&quot;&gt;&lt;br&gt;&lt;br&gt;≪s3 xlsx≫&lt;br style=&quot;border-color: var(--border-color);&quot;&gt;&lt;/i&gt;US EPA&lt;br&gt;emission factors" style="strokeWidth=2;html=1;shape=mxgraph.flowchart.database;whiteSpace=wrap;" parent="1" vertex="1">
          <mxGeometry x="1050" y="-400" width="75" height="100" as="geometry" />
        </mxCell>
        <mxCell id="FAb9GYTSzdvR_h6lj96H-105" value="&lt;b&gt;&lt;font style=&quot;font-size: 14px;&quot;&gt;1&lt;/font&gt;&lt;/b&gt;" style="ellipse;whiteSpace=wrap;html=1;fillColor=#C2C2C2;fontColor=#FFFFFF;" parent="1" vertex="1">
          <mxGeometry x="990" y="-460" width="30" height="30" as="geometry" />
        </mxCell>
        <mxCell id="FAb9GYTSzdvR_h6lj96H-107" value="&lt;i style=&quot;font-size: 10px;&quot;&gt;≪data product≫&lt;br&gt;&lt;/i&gt;invoice data quality profiling" style="rounded=1;whiteSpace=wrap;html=1;absoluteArcSize=1;arcSize=14;strokeWidth=2;fillColor=none;verticalAlign=top;" parent="1" vertex="1">
          <mxGeometry x="700" y="540" width="210" height="125" as="geometry" />
        </mxCell>
        <mxCell id="FAb9GYTSzdvR_h6lj96H-109" value="&lt;b&gt;&lt;font style=&quot;font-size: 14px;&quot;&gt;9&lt;/font&gt;&lt;/b&gt;" style="ellipse;whiteSpace=wrap;html=1;fillColor=#C2C2C2;fontColor=#FFFFFF;" parent="1" vertex="1">
          <mxGeometry x="690" y="525" width="30" height="30" as="geometry" />
        </mxCell>
        <mxCell id="FAb9GYTSzdvR_h6lj96H-110" style="edgeStyle=orthogonalEdgeStyle;rounded=0;orthogonalLoop=1;jettySize=auto;html=1;endArrow=none;endFill=0;startArrow=diamondThin;startFill=0;" parent="1" source="FAb9GYTSzdvR_h6lj96H-30" target="fHjM2LGzWpUDxwAUwFOc-67" edge="1">
          <mxGeometry relative="1" as="geometry">
            <mxPoint x="670" y="855" as="targetPoint" />
          </mxGeometry>
        </mxCell>
        <mxCell id="FAb9GYTSzdvR_h6lj96H-131" style="edgeStyle=orthogonalEdgeStyle;rounded=0;orthogonalLoop=1;jettySize=auto;html=1;" parent="1" source="fHjM2LGzWpUDxwAUwFOc-26" target="FAb9GYTSzdvR_h6lj96H-117" edge="1">
          <mxGeometry relative="1" as="geometry">
            <Array as="points">
              <mxPoint x="815" y="250" />
            </Array>
          </mxGeometry>
        </mxCell>
        <mxCell id="fHjM2LGzWpUDxwAUwFOc-15" style="edgeStyle=orthogonalEdgeStyle;rounded=0;orthogonalLoop=1;jettySize=auto;html=1;" edge="1" parent="1" source="fHjM2LGzWpUDxwAUwFOc-1" target="fHjM2LGzWpUDxwAUwFOc-2">
          <mxGeometry relative="1" as="geometry">
            <Array as="points">
              <mxPoint x="780" y="55" />
              <mxPoint x="780" y="55" />
            </Array>
          </mxGeometry>
        </mxCell>
        <mxCell id="fHjM2LGzWpUDxwAUwFOc-1" value="&lt;i style=&quot;border-color: var(--border-color); font-size: 10px;&quot;&gt;≪sif≫&lt;br style=&quot;border-color: var(--border-color);&quot;&gt;&lt;/i&gt;naics matches" style="shape=parallelogram;html=1;strokeWidth=2;perimeter=parallelogramPerimeter;whiteSpace=wrap;rounded=1;arcSize=12;size=0.23;" vertex="1" parent="1">
          <mxGeometry x="620" y="30" width="120" height="50" as="geometry" />
        </mxCell>
        <mxCell id="fHjM2LGzWpUDxwAUwFOc-18" style="edgeStyle=orthogonalEdgeStyle;rounded=0;orthogonalLoop=1;jettySize=auto;html=1;" edge="1" parent="1" source="fHjM2LGzWpUDxwAUwFOc-2" target="fHjM2LGzWpUDxwAUwFOc-17">
          <mxGeometry relative="1" as="geometry" />
        </mxCell>
        <mxCell id="fHjM2LGzWpUDxwAUwFOc-19" style="edgeStyle=orthogonalEdgeStyle;rounded=0;orthogonalLoop=1;jettySize=auto;html=1;" edge="1" parent="1" source="fHjM2LGzWpUDxwAUwFOc-2" target="fHjM2LGzWpUDxwAUwFOc-16">
          <mxGeometry relative="1" as="geometry">
            <Array as="points">
              <mxPoint x="830" y="110" />
              <mxPoint x="680" y="110" />
            </Array>
          </mxGeometry>
        </mxCell>
        <mxCell id="fHjM2LGzWpUDxwAUwFOc-2" value="&lt;i style=&quot;border-color: var(--border-color); font-size: 10px;&quot;&gt;≪sif≫&lt;br style=&quot;border-color: var(--border-color);&quot;&gt;&lt;/i&gt;naics match&lt;br&gt;review" style="html=1;strokeWidth=2;shape=manualInput;whiteSpace=wrap;rounded=1;size=20;arcSize=11;" vertex="1" parent="1">
          <mxGeometry x="780" y="25" width="100" height="55" as="geometry" />
        </mxCell>
        <mxCell id="fHjM2LGzWpUDxwAUwFOc-3" value="" style="strokeWidth=2;html=1;shape=mxgraph.flowchart.database;whiteSpace=wrap;" vertex="1" parent="1">
          <mxGeometry x="-207.5" y="-715" width="50" height="60" as="geometry" />
        </mxCell>
        <mxCell id="fHjM2LGzWpUDxwAUwFOc-4" value="Datazone asset" style="text;html=1;align=left;verticalAlign=middle;resizable=0;points=[];autosize=1;strokeColor=none;fillColor=none;" vertex="1" parent="1">
          <mxGeometry x="-127.5" y="-695" width="110" height="30" as="geometry" />
        </mxCell>
        <mxCell id="fHjM2LGzWpUDxwAUwFOc-5" value="" style="strokeWidth=2;html=1;shape=mxgraph.flowchart.document2;whiteSpace=wrap;size=0.25;" vertex="1" parent="1">
          <mxGeometry x="-207.5" y="-635" width="50" height="30" as="geometry" />
        </mxCell>
        <mxCell id="fHjM2LGzWpUDxwAUwFOc-6" value="Datazone metaform" style="text;html=1;align=left;verticalAlign=middle;resizable=0;points=[];autosize=1;strokeColor=none;fillColor=none;" vertex="1" parent="1">
          <mxGeometry x="-127.5" y="-635" width="130" height="30" as="geometry" />
        </mxCell>
        <mxCell id="fHjM2LGzWpUDxwAUwFOc-7" value="" style="rounded=1;whiteSpace=wrap;html=1;absoluteArcSize=1;arcSize=14;strokeWidth=2;" vertex="1" parent="1">
          <mxGeometry x="-207.5" y="-585" width="60" height="30" as="geometry" />
        </mxCell>
        <mxCell id="fHjM2LGzWpUDxwAUwFOc-8" value="Process" style="text;html=1;align=left;verticalAlign=middle;resizable=0;points=[];autosize=1;strokeColor=none;fillColor=none;" vertex="1" parent="1">
          <mxGeometry x="-127.5" y="-585" width="70" height="30" as="geometry" />
        </mxCell>
        <mxCell id="fHjM2LGzWpUDxwAUwFOc-9" value="" style="shape=parallelogram;html=1;strokeWidth=2;perimeter=parallelogramPerimeter;whiteSpace=wrap;rounded=1;arcSize=12;size=0.23;" vertex="1" parent="1">
          <mxGeometry x="-207.5" y="-535" width="60" height="30" as="geometry" />
        </mxCell>
        <mxCell id="fHjM2LGzWpUDxwAUwFOc-10" value="Internal data product generated data" style="text;html=1;align=left;verticalAlign=middle;resizable=0;points=[];autosize=1;strokeColor=none;fillColor=none;" vertex="1" parent="1">
          <mxGeometry x="-127.5" y="-535" width="220" height="30" as="geometry" />
        </mxCell>
        <mxCell id="fHjM2LGzWpUDxwAUwFOc-11" value="" style="html=1;strokeWidth=2;shape=manualInput;whiteSpace=wrap;rounded=1;size=13;arcSize=11;" vertex="1" parent="1">
          <mxGeometry x="-207.5" y="-485" width="60" height="40" as="geometry" />
        </mxCell>
        <mxCell id="fHjM2LGzWpUDxwAUwFOc-12" value="Human intervention" style="text;html=1;align=left;verticalAlign=middle;resizable=0;points=[];autosize=1;strokeColor=none;fillColor=none;" vertex="1" parent="1">
          <mxGeometry x="-127.5" y="-480" width="130" height="30" as="geometry" />
        </mxCell>
        <mxCell id="fHjM2LGzWpUDxwAUwFOc-14" style="edgeStyle=orthogonalEdgeStyle;rounded=0;orthogonalLoop=1;jettySize=auto;html=1;" edge="1" parent="1" source="fHjM2LGzWpUDxwAUwFOc-13" target="fHjM2LGzWpUDxwAUwFOc-1">
          <mxGeometry relative="1" as="geometry" />
        </mxCell>
        <mxCell id="fHjM2LGzWpUDxwAUwFOc-13" value="&lt;i style=&quot;border-color: var(--border-color); font-size: 10px;&quot;&gt;≪sif≫&lt;br style=&quot;border-color: var(--border-color);&quot;&gt;&lt;/i&gt;caml mapping&lt;br&gt;data pipeline" style="rounded=1;whiteSpace=wrap;html=1;absoluteArcSize=1;arcSize=14;strokeWidth=2;" vertex="1" parent="1">
          <mxGeometry x="490" y="30" width="90" height="50" as="geometry" />
        </mxCell>
        <mxCell id="fHjM2LGzWpUDxwAUwFOc-27" style="edgeStyle=orthogonalEdgeStyle;rounded=0;orthogonalLoop=1;jettySize=auto;html=1;" edge="1" parent="1" source="fHjM2LGzWpUDxwAUwFOc-16" target="fHjM2LGzWpUDxwAUwFOc-26">
          <mxGeometry relative="1" as="geometry" />
        </mxCell>
        <mxCell id="fHjM2LGzWpUDxwAUwFOc-16" value="&lt;i style=&quot;border-color: var(--border-color); font-size: 10px;&quot;&gt;≪sif≫&lt;br style=&quot;border-color: var(--border-color);&quot;&gt;&lt;/i&gt;impact&lt;br&gt;pipeline" style="rounded=1;whiteSpace=wrap;html=1;absoluteArcSize=1;arcSize=14;strokeWidth=2;" vertex="1" parent="1">
          <mxGeometry x="635" y="140" width="90" height="50" as="geometry" />
        </mxCell>
        <mxCell id="fHjM2LGzWpUDxwAUwFOc-25" style="edgeStyle=orthogonalEdgeStyle;rounded=0;orthogonalLoop=1;jettySize=auto;html=1;endArrow=none;endFill=0;startArrow=diamondThin;startFill=0;" edge="1" parent="1" source="fHjM2LGzWpUDxwAUwFOc-17" target="fHjM2LGzWpUDxwAUwFOc-24">
          <mxGeometry relative="1" as="geometry" />
        </mxCell>
        <mxCell id="fHjM2LGzWpUDxwAUwFOc-17" value="&lt;i style=&quot;font-size: 10px;&quot;&gt;&lt;br&gt;≪s3≫&lt;br style=&quot;border-color: var(--border-color);&quot;&gt;&lt;/i&gt;material NAICS" style="strokeWidth=2;html=1;shape=mxgraph.flowchart.database;whiteSpace=wrap;" vertex="1" parent="1">
          <mxGeometry x="1077.5" y="11.25" width="80" height="82.5" as="geometry" />
        </mxCell>
        <mxCell id="FAb9GYTSzdvR_h6lj96H-10" value="&lt;i style=&quot;font-size: 10px;&quot;&gt;≪data product≫&lt;br&gt;&lt;/i&gt;demo data" style="rounded=1;whiteSpace=wrap;html=1;absoluteArcSize=1;arcSize=14;strokeWidth=2;fillColor=none;verticalAlign=top;" parent="1" vertex="1">
          <mxGeometry x="-200" y="-31.25" width="310" height="281.25" as="geometry" />
        </mxCell>
        <mxCell id="FAb9GYTSzdvR_h6lj96H-5" value="- Data profile&lt;br&gt;- Glossary terms" style="strokeWidth=2;html=1;shape=mxgraph.flowchart.document2;whiteSpace=wrap;size=0.25;align=left;" parent="1" vertex="1">
          <mxGeometry x="-160" y="25" width="95" height="60" as="geometry" />
        </mxCell>
        <mxCell id="FAb9GYTSzdvR_h6lj96H-8" style="edgeStyle=orthogonalEdgeStyle;rounded=0;orthogonalLoop=1;jettySize=auto;html=1;endArrow=none;endFill=0;startArrow=diamondThin;startFill=0;" parent="1" source="FAb9GYTSzdvR_h6lj96H-6" target="FAb9GYTSzdvR_h6lj96H-5" edge="1">
          <mxGeometry relative="1" as="geometry" />
        </mxCell>
        <mxCell id="FAb9GYTSzdvR_h6lj96H-6" value="&lt;i style=&quot;font-size: 10px;&quot;&gt;&lt;br&gt;≪redshift≫&lt;br style=&quot;border-color: var(--border-color);&quot;&gt;&lt;/i&gt;materials" style="strokeWidth=2;html=1;shape=mxgraph.flowchart.database;whiteSpace=wrap;" parent="1" vertex="1">
          <mxGeometry x="-10" y="15" width="70" height="80" as="geometry" />
        </mxCell>
        <mxCell id="FAb9GYTSzdvR_h6lj96H-91" value="&lt;b&gt;&lt;font style=&quot;font-size: 14px;&quot;&gt;4&lt;/font&gt;&lt;/b&gt;" style="ellipse;whiteSpace=wrap;html=1;fillColor=#C2C2C2;fontColor=#FFFFFF;" parent="1" vertex="1">
          <mxGeometry x="-210" y="-40" width="30" height="30" as="geometry" />
        </mxCell>
        <mxCell id="FAb9GYTSzdvR_h6lj96H-96" value="&lt;span style=&quot;font-size: 14px;&quot;&gt;&lt;b&gt;5&lt;/b&gt;&lt;/span&gt;" style="ellipse;whiteSpace=wrap;html=1;fillColor=#C2C2C2;fontColor=#FFFFFF;container=0;" parent="1" vertex="1">
          <mxGeometry x="447.5" y="-31.25" width="30" height="30" as="geometry" />
        </mxCell>
        <mxCell id="fHjM2LGzWpUDxwAUwFOc-24" value="- Data profile&lt;br&gt;- Glossary terms" style="strokeWidth=2;html=1;shape=mxgraph.flowchart.document2;whiteSpace=wrap;size=0.25;align=left;" vertex="1" parent="1">
          <mxGeometry x="1070" y="120" width="95" height="60" as="geometry" />
        </mxCell>
        <mxCell id="fHjM2LGzWpUDxwAUwFOc-26" value="&lt;i style=&quot;border-color: var(--border-color); font-size: 10px;&quot;&gt;≪sif≫&lt;br style=&quot;border-color: var(--border-color);&quot;&gt;&lt;/i&gt;impacts" style="shape=parallelogram;html=1;strokeWidth=2;perimeter=parallelogramPerimeter;whiteSpace=wrap;rounded=1;arcSize=12;size=0.23;" vertex="1" parent="1">
          <mxGeometry x="755" y="140" width="120" height="50" as="geometry" />
        </mxCell>
        <mxCell id="fHjM2LGzWpUDxwAUwFOc-29" style="edgeStyle=orthogonalEdgeStyle;rounded=0;orthogonalLoop=1;jettySize=auto;html=1;endArrow=diamondThin;endFill=0;startArrow=none;startFill=0;" edge="1" parent="1" source="fHjM2LGzWpUDxwAUwFOc-28" target="FAb9GYTSzdvR_h6lj96H-16">
          <mxGeometry relative="1" as="geometry" />
        </mxCell>
        <mxCell id="fHjM2LGzWpUDxwAUwFOc-28" value="- Data profile&lt;br&gt;- Glossary terms&lt;br&gt;- Provenance" style="strokeWidth=2;html=1;shape=mxgraph.flowchart.document2;whiteSpace=wrap;size=0.25;align=left;" vertex="1" parent="1">
          <mxGeometry x="345" y="-250" width="95" height="80" as="geometry" />
        </mxCell>
        <mxCell id="fHjM2LGzWpUDxwAUwFOc-30" value="- Data profile&lt;br&gt;- Glossary terms&lt;br&gt;- Provenance" style="strokeWidth=2;html=1;shape=mxgraph.flowchart.document2;whiteSpace=wrap;size=0.25;align=left;" vertex="1" parent="1">
          <mxGeometry x="1040" y="-250" width="95" height="80" as="geometry" />
        </mxCell>
        <mxCell id="fHjM2LGzWpUDxwAUwFOc-38" style="edgeStyle=orthogonalEdgeStyle;rounded=0;orthogonalLoop=1;jettySize=auto;html=1;entryX=0;entryY=0.5;entryDx=0;entryDy=0;entryPerimeter=0;" edge="1" parent="1" source="FAb9GYTSzdvR_h6lj96H-102" target="fHjM2LGzWpUDxwAUwFOc-33">
          <mxGeometry relative="1" as="geometry" />
        </mxCell>
        <mxCell id="fHjM2LGzWpUDxwAUwFOc-39" value="- Data profile&lt;br&gt;- Glossary terms" style="strokeWidth=2;html=1;shape=mxgraph.flowchart.document2;whiteSpace=wrap;size=0.25;align=left;" vertex="1" parent="1">
          <mxGeometry x="1227.5" y="-250" width="95" height="80" as="geometry" />
        </mxCell>
        <mxCell id="fHjM2LGzWpUDxwAUwFOc-40" style="edgeStyle=orthogonalEdgeStyle;rounded=0;orthogonalLoop=1;jettySize=auto;html=1;startArrow=diamondThin;startFill=0;endArrow=none;endFill=0;" edge="1" parent="1" source="fHjM2LGzWpUDxwAUwFOc-33" target="fHjM2LGzWpUDxwAUwFOc-39">
          <mxGeometry relative="1" as="geometry" />
        </mxCell>
        <mxCell id="fHjM2LGzWpUDxwAUwFOc-42" value="" style="group" vertex="1" connectable="0" parent="1">
          <mxGeometry x="1237.5" y="-420" width="92.5" height="120" as="geometry" />
        </mxCell>
        <mxCell id="fHjM2LGzWpUDxwAUwFOc-34" value="" style="strokeWidth=2;html=1;shape=mxgraph.flowchart.database;whiteSpace=wrap;" vertex="1" parent="fHjM2LGzWpUDxwAUwFOc-42">
          <mxGeometry x="17.5" width="75" height="100" as="geometry" />
        </mxCell>
        <mxCell id="fHjM2LGzWpUDxwAUwFOc-35" value="" style="strokeWidth=2;html=1;shape=mxgraph.flowchart.database;whiteSpace=wrap;" vertex="1" parent="fHjM2LGzWpUDxwAUwFOc-42">
          <mxGeometry x="10" y="10" width="75" height="100" as="geometry" />
        </mxCell>
        <mxCell id="fHjM2LGzWpUDxwAUwFOc-33" value="&lt;i style=&quot;font-size: 10px;&quot;&gt;&lt;br&gt;&lt;br&gt;≪s3 csv≫&lt;br style=&quot;border-color: var(--border-color);&quot;&gt;&lt;/i&gt;US EPA&lt;br&gt;tables &lt;br&gt;(12 of)" style="strokeWidth=2;html=1;shape=mxgraph.flowchart.database;whiteSpace=wrap;" vertex="1" parent="fHjM2LGzWpUDxwAUwFOc-42">
          <mxGeometry y="20" width="75" height="100" as="geometry" />
        </mxCell>
        <mxCell id="fHjM2LGzWpUDxwAUwFOc-51" style="edgeStyle=orthogonalEdgeStyle;rounded=0;orthogonalLoop=1;jettySize=auto;html=1;" edge="1" parent="1" source="fHjM2LGzWpUDxwAUwFOc-52" target="fHjM2LGzWpUDxwAUwFOc-54">
          <mxGeometry relative="1" as="geometry" />
        </mxCell>
        <mxCell id="fHjM2LGzWpUDxwAUwFOc-52" value="&lt;i style=&quot;border-color: var(--border-color); font-size: 10px;&quot;&gt;≪sif≫&lt;br style=&quot;border-color: var(--border-color);&quot;&gt;&lt;/i&gt;impact pipeline&lt;br&gt;(12 of)" style="rounded=1;whiteSpace=wrap;html=1;absoluteArcSize=1;arcSize=14;strokeWidth=2;" vertex="1" parent="1">
          <mxGeometry x="1510" y="-380" width="115" height="60" as="geometry" />
        </mxCell>
        <mxCell id="fHjM2LGzWpUDxwAUwFOc-53" value="&lt;span style=&quot;font-size: 14px;&quot;&gt;&lt;b&gt;2&lt;/b&gt;&lt;/span&gt;" style="ellipse;whiteSpace=wrap;html=1;fillColor=#C2C2C2;fontColor=#FFFFFF;container=0;" vertex="1" parent="1">
          <mxGeometry x="1440" y="-460" width="30" height="30" as="geometry" />
        </mxCell>
        <mxCell id="fHjM2LGzWpUDxwAUwFOc-60" style="edgeStyle=orthogonalEdgeStyle;rounded=0;orthogonalLoop=1;jettySize=auto;html=1;" edge="1" parent="1" source="fHjM2LGzWpUDxwAUwFOc-54" target="FAb9GYTSzdvR_h6lj96H-117">
          <mxGeometry relative="1" as="geometry">
            <Array as="points">
              <mxPoint x="1765" y="-240" />
              <mxPoint x="1765" y="-240" />
            </Array>
          </mxGeometry>
        </mxCell>
        <mxCell id="fHjM2LGzWpUDxwAUwFOc-54" value="&lt;i style=&quot;border-color: var(--border-color); font-size: 10px;&quot;&gt;≪sif≫&lt;br style=&quot;border-color: var(--border-color);&quot;&gt;&lt;/i&gt;impacts" style="shape=parallelogram;html=1;strokeWidth=2;perimeter=parallelogramPerimeter;whiteSpace=wrap;rounded=1;arcSize=12;size=0.23;" vertex="1" parent="1">
          <mxGeometry x="1700" y="-380" width="130" height="60" as="geometry" />
        </mxCell>
        <mxCell id="fHjM2LGzWpUDxwAUwFOc-59" style="edgeStyle=orthogonalEdgeStyle;rounded=0;orthogonalLoop=1;jettySize=auto;html=1;" edge="1" parent="1" source="fHjM2LGzWpUDxwAUwFOc-33" target="fHjM2LGzWpUDxwAUwFOc-52">
          <mxGeometry relative="1" as="geometry" />
        </mxCell>
        <mxCell id="fHjM2LGzWpUDxwAUwFOc-62" style="edgeStyle=orthogonalEdgeStyle;rounded=0;orthogonalLoop=1;jettySize=auto;html=1;endArrow=none;endFill=0;startArrow=diamondThin;startFill=0;" edge="1" parent="1" source="FAb9GYTSzdvR_h6lj96H-23" target="fHjM2LGzWpUDxwAUwFOc-61">
          <mxGeometry relative="1" as="geometry" />
        </mxCell>
        <mxCell id="fHjM2LGzWpUDxwAUwFOc-63" style="edgeStyle=orthogonalEdgeStyle;rounded=0;orthogonalLoop=1;jettySize=auto;html=1;endArrow=none;endFill=0;startArrow=diamondThin;startFill=0;" edge="1" parent="1" source="FAb9GYTSzdvR_h6lj96H-23" target="FAb9GYTSzdvR_h6lj96H-84">
          <mxGeometry relative="1" as="geometry">
            <Array as="points">
              <mxPoint x="28" y="390" />
              <mxPoint x="28" y="390" />
            </Array>
          </mxGeometry>
        </mxCell>
        <mxCell id="FAb9GYTSzdvR_h6lj96H-23" value="&lt;i style=&quot;font-size: 10px;&quot;&gt;&lt;br&gt;≪s3≫&lt;br style=&quot;border-color: var(--border-color);&quot;&gt;&lt;/i&gt;invoice data" style="strokeWidth=2;html=1;shape=mxgraph.flowchart.database;whiteSpace=wrap;container=0;" parent="1" vertex="1">
          <mxGeometry x="-10" y="120" width="75" height="90" as="geometry" />
        </mxCell>
        <mxCell id="fHjM2LGzWpUDxwAUwFOc-61" value="- Data profile&lt;br&gt;- Glossary terms" style="strokeWidth=2;html=1;shape=mxgraph.flowchart.document2;whiteSpace=wrap;size=0.25;align=left;" vertex="1" parent="1">
          <mxGeometry x="-160" y="130" width="95" height="70" as="geometry" />
        </mxCell>
        <mxCell id="FAb9GYTSzdvR_h6lj96H-27" value="&lt;i style=&quot;font-size: 10px;&quot;&gt;≪data product≫&lt;br&gt;&lt;/i&gt;cleaned invoice data" style="rounded=1;whiteSpace=wrap;html=1;absoluteArcSize=1;arcSize=14;strokeWidth=2;fillColor=none;verticalAlign=top;container=0;" parent="1" vertex="1">
          <mxGeometry x="320" y="510" width="300" height="290" as="geometry" />
        </mxCell>
        <mxCell id="fHjM2LGzWpUDxwAUwFOc-66" style="edgeStyle=orthogonalEdgeStyle;rounded=0;orthogonalLoop=1;jettySize=auto;html=1;endArrow=none;endFill=0;startArrow=diamondThin;startFill=0;" edge="1" parent="1" source="FAb9GYTSzdvR_h6lj96H-30" target="fHjM2LGzWpUDxwAUwFOc-65">
          <mxGeometry relative="1" as="geometry" />
        </mxCell>
        <mxCell id="FAb9GYTSzdvR_h6lj96H-30" value="&lt;i style=&quot;font-size: 10px;&quot;&gt;&lt;br&gt;≪s3≫&lt;br style=&quot;border-color: var(--border-color);&quot;&gt;&lt;/i&gt;cleansed&lt;br&gt;invoice data" style="strokeWidth=2;html=1;shape=mxgraph.flowchart.database;whiteSpace=wrap;container=0;" parent="1" vertex="1">
          <mxGeometry x="500" y="560" width="80" height="105" as="geometry" />
        </mxCell>
        <mxCell id="fHjM2LGzWpUDxwAUwFOc-73" style="edgeStyle=orthogonalEdgeStyle;rounded=0;orthogonalLoop=1;jettySize=auto;html=1;" edge="1" parent="1" source="FAb9GYTSzdvR_h6lj96H-40" target="FAb9GYTSzdvR_h6lj96H-30">
          <mxGeometry relative="1" as="geometry" />
        </mxCell>
        <mxCell id="FAb9GYTSzdvR_h6lj96H-40" value="&lt;i style=&quot;border-color: var(--border-color); font-size: 10px;&quot;&gt;≪recipe≫&lt;br style=&quot;border-color: var(--border-color);&quot;&gt;&lt;/i&gt;clean up" style="rounded=1;whiteSpace=wrap;html=1;absoluteArcSize=1;arcSize=14;strokeWidth=2;container=0;" parent="1" vertex="1">
          <mxGeometry x="360" y="587.5" width="90" height="50" as="geometry" />
        </mxCell>
        <mxCell id="FAb9GYTSzdvR_h6lj96H-95" value="&lt;b&gt;&lt;font style=&quot;font-size: 14px;&quot;&gt;8&lt;/font&gt;&lt;/b&gt;" style="ellipse;whiteSpace=wrap;html=1;fillColor=#C2C2C2;fontColor=#FFFFFF;container=0;" parent="1" vertex="1">
          <mxGeometry x="305" y="495" width="30" height="30" as="geometry" />
        </mxCell>
        <mxCell id="fHjM2LGzWpUDxwAUwFOc-65" value="- Data profile&lt;br&gt;- Glossary terms" style="strokeWidth=2;html=1;shape=mxgraph.flowchart.document2;whiteSpace=wrap;size=0.25;align=left;" vertex="1" parent="1">
          <mxGeometry x="492.5" y="705" width="95" height="70" as="geometry" />
        </mxCell>
        <mxCell id="fHjM2LGzWpUDxwAUwFOc-68" style="edgeStyle=orthogonalEdgeStyle;rounded=0;orthogonalLoop=1;jettySize=auto;html=1;dashed=1;" edge="1" parent="1" source="fHjM2LGzWpUDxwAUwFOc-75" target="FAb9GYTSzdvR_h6lj96H-116">
          <mxGeometry relative="1" as="geometry">
            <Array as="points">
              <mxPoint x="1910" y="618" />
            </Array>
          </mxGeometry>
        </mxCell>
        <mxCell id="fHjM2LGzWpUDxwAUwFOc-67" value="- Data quality&lt;br&gt;" style="strokeWidth=2;html=1;shape=mxgraph.flowchart.document2;whiteSpace=wrap;size=0.25;" vertex="1" parent="1">
          <mxGeometry x="760" y="582.5" width="90" height="60" as="geometry" />
        </mxCell>
        <mxCell id="fHjM2LGzWpUDxwAUwFOc-74" value="&lt;i style=&quot;border-color: var(--border-color); font-size: 10px;&quot;&gt;&lt;br style=&quot;border-color: var(--border-color);&quot;&gt;&lt;/i&gt;review quality" style="html=1;strokeWidth=2;shape=manualInput;whiteSpace=wrap;rounded=1;size=20;arcSize=11;" vertex="1" parent="1">
          <mxGeometry x="160" y="600" width="100" height="55" as="geometry" />
        </mxCell>
        <mxCell id="fHjM2LGzWpUDxwAUwFOc-76" value="" style="edgeStyle=orthogonalEdgeStyle;rounded=0;orthogonalLoop=1;jettySize=auto;html=1;dashed=1;" edge="1" parent="1" source="fHjM2LGzWpUDxwAUwFOc-67" target="fHjM2LGzWpUDxwAUwFOc-75">
          <mxGeometry relative="1" as="geometry">
            <mxPoint x="870" y="610" as="sourcePoint" />
            <mxPoint x="1830" y="390" as="targetPoint" />
            <Array as="points" />
          </mxGeometry>
        </mxCell>
        <mxCell id="fHjM2LGzWpUDxwAUwFOc-75" value="&lt;i style=&quot;border-color: var(--border-color); font-size: 10px;&quot;&gt;&lt;br style=&quot;border-color: var(--border-color);&quot;&gt;&lt;/i&gt;review quality" style="html=1;strokeWidth=2;shape=manualInput;whiteSpace=wrap;rounded=1;size=20;arcSize=11;" vertex="1" parent="1">
          <mxGeometry x="977.5" y="585" width="100" height="55" as="geometry" />
        </mxCell>
        <mxCell id="fHjM2LGzWpUDxwAUwFOc-79" value="&lt;span style=&quot;font-size: 14px;&quot;&gt;&lt;b&gt;6&lt;/b&gt;&lt;/span&gt;" style="ellipse;whiteSpace=wrap;html=1;fillColor=#C2C2C2;fontColor=#FFFFFF;container=0;" vertex="1" parent="1">
          <mxGeometry x="1000" y="-50" width="30" height="30" as="geometry" />
        </mxCell>
        <mxCell id="FAb9GYTSzdvR_h6lj96H-116" value="&lt;i style=&quot;font-size: 10px;&quot;&gt;≪data product≫&lt;br&gt;&lt;/i&gt;scope 3 purchased goods &amp;amp; services" style="rounded=1;whiteSpace=wrap;html=1;absoluteArcSize=1;arcSize=14;strokeWidth=2;fillColor=none;verticalAlign=top;container=0;" parent="1" vertex="1">
          <mxGeometry x="1680" y="110" width="460" height="250" as="geometry" />
        </mxCell>
        <mxCell id="FAb9GYTSzdvR_h6lj96H-117" value="&lt;i style=&quot;border-color: var(--border-color); font-size: 10px;&quot;&gt;≪sif≫&lt;br style=&quot;border-color: var(--border-color);&quot;&gt;&lt;/i&gt;activity pipeline" style="rounded=1;whiteSpace=wrap;html=1;absoluteArcSize=1;arcSize=14;strokeWidth=2;container=0;" parent="1" vertex="1">
          <mxGeometry x="1720" y="225" width="90" height="50" as="geometry" />
        </mxCell>
        <mxCell id="fHjM2LGzWpUDxwAUwFOc-71" style="edgeStyle=orthogonalEdgeStyle;rounded=0;orthogonalLoop=1;jettySize=auto;html=1;endArrow=none;endFill=0;startArrow=diamondThin;startFill=0;" edge="1" parent="1" source="FAb9GYTSzdvR_h6lj96H-120" target="fHjM2LGzWpUDxwAUwFOc-69">
          <mxGeometry relative="1" as="geometry" />
        </mxCell>
        <mxCell id="FAb9GYTSzdvR_h6lj96H-120" value="&lt;i style=&quot;font-size: 10px;&quot;&gt;&lt;br&gt;≪s3≫&lt;br style=&quot;border-color: var(--border-color);&quot;&gt;&lt;/i&gt;latest&lt;br&gt;metrics" style="strokeWidth=2;html=1;shape=mxgraph.flowchart.database;whiteSpace=wrap;container=0;" parent="1" vertex="1">
          <mxGeometry x="1880" y="160" width="80" height="80" as="geometry" />
        </mxCell>
        <mxCell id="FAb9GYTSzdvR_h6lj96H-121" style="edgeStyle=orthogonalEdgeStyle;rounded=0;orthogonalLoop=1;jettySize=auto;html=1;" parent="1" source="FAb9GYTSzdvR_h6lj96H-117" target="FAb9GYTSzdvR_h6lj96H-120" edge="1">
          <mxGeometry relative="1" as="geometry">
            <Array as="points">
              <mxPoint x="1840" y="250" />
              <mxPoint x="1840" y="200" />
            </Array>
          </mxGeometry>
        </mxCell>
        <mxCell id="fHjM2LGzWpUDxwAUwFOc-72" style="edgeStyle=orthogonalEdgeStyle;rounded=0;orthogonalLoop=1;jettySize=auto;html=1;endArrow=none;endFill=0;startArrow=diamondThin;startFill=0;" edge="1" parent="1" source="FAb9GYTSzdvR_h6lj96H-126" target="fHjM2LGzWpUDxwAUwFOc-70">
          <mxGeometry relative="1" as="geometry" />
        </mxCell>
        <mxCell id="FAb9GYTSzdvR_h6lj96H-126" value="&lt;i style=&quot;font-size: 10px;&quot;&gt;&lt;br&gt;≪s3≫&lt;br style=&quot;border-color: var(--border-color);&quot;&gt;&lt;/i&gt;latest&lt;br&gt;activities" style="strokeWidth=2;html=1;shape=mxgraph.flowchart.database;whiteSpace=wrap;container=0;" parent="1" vertex="1">
          <mxGeometry x="1880" y="260" width="80" height="70" as="geometry" />
        </mxCell>
        <mxCell id="FAb9GYTSzdvR_h6lj96H-127" style="edgeStyle=orthogonalEdgeStyle;rounded=0;orthogonalLoop=1;jettySize=auto;html=1;" parent="1" source="FAb9GYTSzdvR_h6lj96H-117" target="FAb9GYTSzdvR_h6lj96H-126" edge="1">
          <mxGeometry relative="1" as="geometry">
            <Array as="points">
              <mxPoint x="1840" y="250" />
              <mxPoint x="1840" y="295" />
            </Array>
          </mxGeometry>
        </mxCell>
        <mxCell id="FAb9GYTSzdvR_h6lj96H-130" value="&lt;b&gt;&lt;font style=&quot;font-size: 14px;&quot;&gt;10&lt;/font&gt;&lt;/b&gt;" style="ellipse;whiteSpace=wrap;html=1;fillColor=#C2C2C2;fontColor=#FFFFFF;container=0;" parent="1" vertex="1">
          <mxGeometry x="1670" y="95" width="30" height="30" as="geometry" />
        </mxCell>
        <mxCell id="fHjM2LGzWpUDxwAUwFOc-69" value="- Data profile&lt;br&gt;- Glossary terms" style="strokeWidth=2;html=1;shape=mxgraph.flowchart.document2;whiteSpace=wrap;size=0.25;align=left;container=0;" vertex="1" parent="1">
          <mxGeometry x="2000" y="170" width="95" height="60" as="geometry" />
        </mxCell>
        <mxCell id="fHjM2LGzWpUDxwAUwFOc-70" value="- Data profile&lt;br&gt;- Glossary terms" style="strokeWidth=2;html=1;shape=mxgraph.flowchart.document2;whiteSpace=wrap;size=0.25;align=left;container=0;" vertex="1" parent="1">
          <mxGeometry x="2010" y="265" width="95" height="60" as="geometry" />
        </mxCell>
        <mxCell id="fHjM2LGzWpUDxwAUwFOc-81" value="Legend" style="text;html=1;align=left;verticalAlign=middle;resizable=0;points=[];autosize=1;strokeColor=none;fillColor=none;fontSize=14;fontStyle=1" vertex="1" parent="1">
          <mxGeometry x="-207.5" y="-765" width="70" height="30" as="geometry" />
        </mxCell>
        <mxCell id="fHjM2LGzWpUDxwAUwFOc-82" value="" style="edgeStyle=none;orthogonalLoop=1;jettySize=auto;html=1;rounded=0;" edge="1" parent="1">
          <mxGeometry width="100" relative="1" as="geometry">
            <mxPoint x="-207.5" y="-410.5" as="sourcePoint" />
            <mxPoint x="-147.5" y="-410.5" as="targetPoint" />
            <Array as="points" />
          </mxGeometry>
        </mxCell>
        <mxCell id="fHjM2LGzWpUDxwAUwFOc-83" value="Data flow" style="text;html=1;align=left;verticalAlign=middle;resizable=0;points=[];autosize=1;strokeColor=none;fillColor=none;" vertex="1" parent="1">
          <mxGeometry x="-127.5" y="-425" width="70" height="30" as="geometry" />
        </mxCell>
        <mxCell id="fHjM2LGzWpUDxwAUwFOc-84" value="" style="edgeStyle=none;orthogonalLoop=1;jettySize=auto;html=1;rounded=0;dashed=1;" edge="1" parent="1">
          <mxGeometry width="100" relative="1" as="geometry">
            <mxPoint x="-207.5" y="-370.5" as="sourcePoint" />
            <mxPoint x="-147.5" y="-370.5" as="targetPoint" />
            <Array as="points" />
          </mxGeometry>
        </mxCell>
        <mxCell id="fHjM2LGzWpUDxwAUwFOc-85" value="Influence" style="text;html=1;align=left;verticalAlign=middle;resizable=0;points=[];autosize=1;strokeColor=none;fillColor=none;" vertex="1" parent="1">
          <mxGeometry x="-127.5" y="-385" width="70" height="30" as="geometry" />
        </mxCell>
        <mxCell id="fHjM2LGzWpUDxwAUwFOc-86" value="" style="edgeStyle=none;orthogonalLoop=1;jettySize=auto;html=1;rounded=0;endArrow=diamondThin;endFill=0;" edge="1" parent="1">
          <mxGeometry width="100" relative="1" as="geometry">
            <mxPoint x="-207.5" y="-330.5" as="sourcePoint" />
            <mxPoint x="-147.5" y="-330.5" as="targetPoint" />
            <Array as="points" />
          </mxGeometry>
        </mxCell>
        <mxCell id="fHjM2LGzWpUDxwAUwFOc-87" value="Belongs to" style="text;html=1;align=left;verticalAlign=middle;resizable=0;points=[];autosize=1;strokeColor=none;fillColor=none;" vertex="1" parent="1">
          <mxGeometry x="-127.5" y="-345" width="80" height="30" as="geometry" />
        </mxCell>
      </root>
    </mxGraphModel>
  </diagram>
</mxfile>
